<svg version="1.1" xmlns="http://www.w3.org/2000/svg" xmlns:xlink="http://www.w3.org/1999/xlink" width="800" height="800"><defs/><g transform="scale(2,2)">
<g id="background-c0abc2df">
<!-- <rect fill="white" stroke="none" x="0" y="0" width="400" height="400" class="dcg-svg-background"/> -->
</g><g id="graphpaper-c0abc2df"><g id="axis-c0abc2df"><g><g><path fill="none" stroke="rgb(0,0,0)" class="dcg-svg-tickmark" paint-order="fill stroke markers" d="" stroke-opacity="0.9" stroke-miterlimit="2" stroke-width="1.5" stroke-dasharray=""/></g></g></g></g><g id="expressions-c0abc2df"><g id="sketch-c0abc2df"><title>Expression 115</title><path fill="#000000" stroke="none" paint-order="stroke fill markers" d="" fill-opacity="0.4"/><g><path fill="none" stroke="#000000" class="dcg-svg-curve" paint-order="fill stroke markers" d=" M 355.0055040026933 247.6579851110218 L 355.0055040026933 247.6579851110218 L 350.4297926211633 249.69702502521287 L 345.7697664827103 251.4831206686348 L 341.0837912478155 252.99909860738052 L 336.31554517410865 254.2682640296901 L 331.46502826158985 255.2906169355636 L 326.4708277816735 256.0741895545957 L 321.3923125448341 256.6048179028586 L 316.2294825510717 256.8825019803524 L 310.91782784619704 256.9059823398603 L 305.51978938753837 256.6703114380165 L 299.96876314529595 256.1679476007723 L 294.2615891969914 255.3894110606925 L 293.44857260573656 255.25760627113988" stroke-linecap="round" stroke-linejoin="round" stroke-miterlimit="10" stroke-width="5" stroke-dasharray=""/></g></g><g id="sketch-c0abc2df"><title>Expression 116</title><path fill="#000000" stroke="none" paint-order="stroke fill markers" d="" fill-opacity="0.4"/><g><path fill="none" stroke="#000000" class="dcg-svg-curve" paint-order="fill stroke markers" d=" M 382.45913544361997 269.22191015285694 L 382.45913544361997 269.22191015285694 L 372.95960899347233 278.7214366030046" stroke-linecap="round" stroke-linejoin="round" stroke-miterlimit="10" stroke-width="5" stroke-dasharray=""/></g></g><g id="sketch-c0abc2df"><title>Expression 117</title><path fill="#000000" stroke="none" paint-order="stroke fill markers" d="" fill-opacity="0.4"/><g><path fill="none" stroke="#000000" class="dcg-svg-curve" paint-order="fill stroke markers" d=" M 253.98261686806399 103.84482997219126 L 253.98261686806399 103.84482997219126 L 250.00254319413304 104.32124638615512 L 246.061141713493 105.05184263786059 L 242.16620621568376 106.0383408823929 L 238.32544024872573 107.28161089617731 L 234.54645517377668 108.78164077854869 L 230.83676985075857 110.53750959446221 L 227.20381203814412 112.54736216753554 L 223.65492158929612 114.80838624140105 L 219.9969671313969 117.47195226516416 L 216.4499184219334 120.40713419394694 L 213.0222145728435 123.60694839238003 L 209.5428062370407 127.26246881843784 L 206.21548426224336 131.19233186920007 L 202.88806470240763 135.61121351995476 L 199.75134356625597 140.30281281832555 L 196.95849664857607 144.99523209736935 L 194.35794373787974 149.89889855155195 L 192.08071250742069 154.72181389803166 L 189.99371587123568 159.6992688516461 L 188.10581275157918 164.81241400839647 L 186.42610433850007 170.0412960702548 L 185.03934286322433 175.06704670290395 L 183.85486546999712 180.15882922934378 L 182.88119834880018 185.2974509380918 L 182.16534443205364 190.15883447612168 L 181.6518700216435 195.02715624699937 L 181.3615177040226 199.58207125760305 L 181.2632167492935 204.11327179782515 L 181.36435280813913 208.60602626767093 L 181.64553296230736 212.7514784820437 L 182.11385980805545 216.838390522488 L 182.7763272488453 220.8546593607922 L 183.64030101070705 224.7882478750962 L 184.62977361028473 228.35641719797127 L 185.80623203974326 231.8336249609517 L 187.1765615946733 235.2106576350625 L 188.74800697980766 238.4785330844474 L 190.52819382632174 241.62855137602796 L 192.68798103628023 244.87948869472586 L 195.10975777090002 247.97411080891942 L 197.80471128986366 250.9030977976322 L 200.56210131013933 253.4670189320093 L 203.57522026244203 255.87440703609332 L 206.85458757980518 258.1196490905911 L 210.1275774600266 260.0440363735382 L 213.64600531732225 261.82288683229086 L 217.7457334989059 263.5827778823235 L 222.15756004797004 265.16653187642777 L 226.89493399003732 266.5728759915166 L 231.9719887316789 267.8016869847045 L 237.40357041489798 268.85408719611974 L 243.6673450684811 269.7930160360633 L 250.38084657859298 270.535204182994 L 258.09744785602237 271.1201711646686 L 266.9563203801448 271.51733318202605 L 277.11832027215337 271.7028496255334 L 289.444742239622 271.6553059651842 L 305.8288282655011 271.3049361741748 L 335.8620032207066 270.33449774401794 L 363.8971335322295 269.5319543930268 L 382.45913544361997 269.22191015285694" stroke-linecap="round" stroke-linejoin="round" stroke-miterlimit="10" stroke-width="5" stroke-dasharray=""/></g></g><g id="sketch-c0abc2df"><title>Expression 118</title><path fill="#000000" stroke="none" paint-order="stroke fill markers" d="" fill-opacity="0.4"/><g><path fill="none" stroke="#000000" class="dcg-svg-curve" paint-order="fill stroke markers" d=" M 14.162494971396 268.0819669788392 L 14.162494971396 268.0819669788392 L 29.28030012897314 269.1131014180753 L 43.116152763445584 269.8240040400657 L 55.74735303770041 270.2281448702739 L 67.24700448488608 270.3391075149889 L 77.68425692059319 270.1705576387007 L 87.12453655348867 269.7362129626951 L 95.62976380336153 269.04981472546115 L 103.25855932180372 268.1251005479359 L 108.76797094668763 267.2229552716255 L 113.77912209313467 266.18405695095015 L 118.31794344341091 265.01537068854987 L 122.4092811073116 263.72382449275494 L 126.07694861585269 262.3163022478512 L 129.34377646394822 260.7996369821461 L 132.23165928884586 259.1806044247666 L 134.76160076905603 257.4659168424447 L 136.9537563264969 255.66221714786425 L 138.82747371259583 253.7760732714509 L 140.40133155713391 251.81397278878686 L 141.69317595669185 249.7823177961244 L 142.72015517765837 247.68742002675432 L 143.49875254689078 245.53549620126282 L 144.0448176012723 243.33266360497493 L 144.373595565596 241.08493588614442 L 144.49975522641432 238.79821906869967 L 144.43741526773132 236.47830777360002 L 144.2001691326783 234.13088164309212 L 143.67754799130208 231.1663669839831 L 142.9265778972588 228.17813499405867 L 141.97067183973027 225.17647389059093 L 140.5844855029622 221.57077501538595 L 138.683850976672 217.3799541163148 L 136.53030309658823 213.23014905187333 L 133.82557224211953 208.5683526579863 L 130.55808695973056 203.46684765920608 L 126.37457789117191 197.4992383057703 L 121.3638785468388 190.9194000821884 L 115.42420982408925 183.6703238616759 L 108.31167733484232 175.50338203887193 L 101.05905757210519 167.15687017209748 L 100.33356427819069 165.92721128469142 L 100.35985316565845 165.66035272898296 L 100.62248631987546 165.5815291800324 L 101.34838944519261 165.7650781912603 L 103.06175374596756 166.543887030667 L 107.05549392504412 168.71774305879518 L 144.71364232706858 189.91039362673803 L 157.37451920798352 196.53448132463498 L 170.31139470812727 202.99505570674967 L 182.2246299735002 208.66016715040882 L 194.66292790072347 214.27263168280115 L 206.50063140751604 219.31335475025455 L 217.5611205933356 223.74265045664575 L 228.7374378249973 227.92453147858996 L 238.928501653733 231.46092762385058 L 249.0843435875088 234.70011661921455 L 258.14312850574134 237.32762897458656 L 267.07830607703266 239.65371909971066 L 275.8459246351934 241.6526735532473 L 283.4639952340254 243.1358386607002 L 290.88650830810843 244.3270059853042 L 298.0851644825574 245.21285424454018 L 305.0327543363464 245.78175259372472 L 310.88547502612545 246.01174895677357 L 316.50946837216003 245.98607002414101 L 321.88898978166424 245.7004032587412 L 327.00918567286703 245.15159576743088 L 331.8561429886505 244.33768451366825 L 335.78337582443936 243.42844583291998 L 339.4928067362929 242.3241213860417 L 342.9774668135942 241.02564149081286 L 346.2309751680808 239.5346204273195 L 349.2475529333328 237.85336144822156 L 352.02203549145946 235.98485994621956 L 354.5498828997228 233.93280472539186 L 356.8271884951263 231.70157732540798 L 358.8506856603974 229.29624935016642 L 360.6177527402854 226.72257775516687 L 362.1264161026837 223.9869980509079 L 363.1852688419013 221.58877461926585 L 364.0633210744732 219.0874991684282 L 364.7604624081624 216.48794577192555 L 365.27689279589106 213.79519488741482 L 365.6131203843596 211.0146266062669 L 365.7699587654961 208.15191314780097 L 365.748523639583 205.21301059315917 L 365.550228900283 202.20414985492414 L 365.17678215315954 199.1318268797508 L 364.5002761693489 195.3707909912376 L 363.57842743940887 191.54022749919196 L 362.41579417650007 187.6527347235448 L 361.0174894604598 183.72135213791765 L 359.3891630058297 179.75952551592187 L 357.20698177179116 175.11736592030277 L 354.73077235074516 170.47508510255054 L 351.9720489125175 165.85570316926191 L 348.9431461576763 161.28266564586283 L 345.167551639557 156.14358872229766 L 341.0768966521116 151.13191762196647 L 336.6929744314506 146.2836298497717 L 332.63435898286843 142.20363869207702 L 328.3844535530304 138.30010979042592 L 323.9595216905312 134.59661487263938 L 319.37621582555187 131.11629439634083 L 314.6515164255291 127.88172614158557 L 309.8026717460514 124.91479117806539 L 304.84713860849763 122.2365376860442 L 300.5279674601086 120.18590698344315 L 296.15449362697177 118.37413816528954 L 291.7378894885149 116.81256840878878 L 287.289330097744 115.5118070960968 L 282.81997073447826 114.48167166638284 L 278.3409258929305 113.73112399643232 L 273.86324987000353 113.26820757520498 L 269.39791912207727 113.09998575310281 L 264.9558165591492 113.23248136248311 L 260.5477179459616 113.67061802217205 L 256.907970165533 114.27196194417311 L 253.30533956627724 115.08973518670003 L 249.74586223288594 116.12487392051645 L 246.23550847999468 117.37768995093086 L 242.78018213744883 118.84785202175733 L 239.38572085315417 120.53436836281912 L 235.40083291194816 122.84137802969455 L 231.52175786729484 125.4532995884952 L 227.7582336021447 128.36446883812147 L 224.11989120432523 131.56773011236191 L 220.61627168608743 135.0544155259512 L 217.2568466250898 138.81433054908058 L 214.05104287684466 142.8357464546796 L 211.00827150429788 147.10540020532994 L 208.1379610653928 151.60850236973727 L 205.4495953941754 156.32875368228827 L 202.95275600521205 161.24837088335332" stroke-linecap="round" stroke-linejoin="round" stroke-miterlimit="10" stroke-width="5" stroke-dasharray=""/></g></g></g><g id="labels-c0abc2df"/><g id="labels-c0abc2df"/></g></svg>